<?xml version="1.0" encoding="iso-8859-1"?>
<!-- Uploaded to: SVG Repo, www.svgrepo.com, Generator: SVG Repo Mixer Tools -->
<svg version="1.1" id="Layer_1" xmlns="http://www.w3.org/2000/svg" xmlns:xlink="http://www.w3.org/1999/xlink" 
	 viewBox="0 0 512 512" xml:space="preserve">
<g>
	<polygon style="fill:#FBB500;" points="256,396.778 104.771,396.778 132.665,281.556 228.105,281.556 	"/>
	<polygon style="fill:#FBB500;" points="407.229,396.778 256,396.778 283.895,281.556 379.335,281.556 	"/>
	<polygon style="fill:#FBB500;" points="331.615,281.556 180.386,281.556 208.281,166.333 303.719,166.333 	"/>
	<polygon style="fill:#FBB500;" points="180.386,512 29.157,512 57.051,396.778 152.49,396.778 	"/>
	<polygon style="fill:#FBB500;" points="331.615,512 180.386,512 208.281,396.778 303.719,396.778 	"/>
	<polygon style="fill:#FBB500;" points="482.843,512 331.615,512 359.51,396.778 454.949,396.778 	"/>
</g>
<g>
	<rect x="240.327" style="fill:#E21B4E;" width="31.347" height="88.712"/>
	
		<rect x="100.909" y="74.553" transform="matrix(-0.7071 -0.7071 0.7071 -0.7071 184.1831 256.7432)" style="fill:#E21B4E;" width="88.711" height="31.347"/>
	<rect x="55.041" y="185.281" style="fill:#E21B4E;" width="88.712" height="31.347"/>
	<rect x="368.243" y="185.281" style="fill:#E21B4E;" width="88.712" height="31.347"/>
	
		<rect x="351.067" y="45.865" transform="matrix(-0.7071 -0.7071 0.7071 -0.7071 562.2693 413.3408)" style="fill:#E21B4E;" width="31.347" height="88.711"/>
</g>
<g>
	<polygon style="fill:#FFCE47;" points="256,166.333 208.281,166.333 180.386,281.556 256,281.556 	"/>
	<polygon style="fill:#FFCE47;" points="331.615,281.556 283.895,281.556 256,396.778 331.615,396.778 	"/>
	<polygon style="fill:#FFCE47;" points="180.386,281.556 132.665,281.556 104.771,396.778 180.386,396.778 	"/>
	<polygon style="fill:#FFCE47;" points="104.771,396.778 57.051,396.778 29.157,512 104.771,512 	"/>
	<polygon style="fill:#FFCE47;" points="256,396.778 208.281,396.778 180.386,512 256,512 	"/>
	<polygon style="fill:#FFCE47;" points="407.229,396.778 359.51,396.778 331.615,512 407.229,512 	"/>
</g>
</svg>