<?xml version="1.0" encoding="iso-8859-1"?>
<!-- Uploaded to: SVG Repo, www.svgrepo.com, Generator: SVG Repo Mixer Tools -->
<svg version="1.1" id="Layer_1" xmlns="http://www.w3.org/2000/svg" xmlns:xlink="http://www.w3.org/1999/xlink" 
	 viewBox="0 0 512 512" xml:space="preserve">
<path style="fill:#81433D;" d="M336.417,164.319L311.285,53.379h-32.681l-6.732,150.877h32.681c18.04,0,32.681-14.63,32.681-32.681
	C337.234,169.08,336.94,166.661,336.417,164.319z"/>
<path style="fill:#A65149;" d="M303.736,164.319c0.523,2.342,0.817,4.761,0.817,7.255c0,18.051-14.641,32.681-32.681,32.681h-67.181
	c-18.051,0-32.681-14.63-32.681-32.681c0-2.495,0.283-4.913,0.817-7.255l25.132-110.941h80.645L303.736,164.319z"/>
<path style="fill:#FFC5BF;" d="M254.619,30.164v108.729c32.093,0,58.096-26.014,58.096-58.096V66.266L254.619,30.164z"/>
<path style="fill:#FFD8D4;" d="M280.034,66.266v14.532c0,32.082-11.373,58.096-25.415,58.096c-32.093,0-58.096-26.014-58.096-58.096
	V66.266c0-14.456,5.283-27.681,14.009-37.844c0.022,0.022,38.64,0,69.458,34.424C280.023,63.978,280.034,65.122,280.034,66.266z"/>
<path style="fill:#81433D;" d="M254.619,8.17l25.371,54.675c10.556,2.244,21.504,3.421,32.724,3.421
	C312.714,34.184,286.711,8.17,254.619,8.17z"/>
<path style="fill:#A65149;" d="M254.619,8.17c13.541,0,24.598,24.184,25.371,54.675c-26.145-5.545-49.882-17.604-69.436-34.402
	C221.197,16.025,236.982,8.17,254.619,8.17z"/>
<path style="fill:#B175C8;" d="M254.617,171.574l49.936,103.489h32.681v-20.883C337.234,208.558,300.239,171.574,254.617,171.574z"
	/>
<path style="fill:#C397DB;" d="M254.617,171.574c27.572,0,49.936,36.984,49.936,82.606v20.883H172.01v-20.883
	C172.01,208.558,208.994,171.574,254.617,171.574z"/>
<polygon style="fill:#A65149;" points="332.255,471.149 332.255,503.83 147.064,503.83 147.064,258.723 332.255,258.723 
	332.255,302.298 288.681,354.043 "/>
<rect x="299.574" y="258.723" style="fill:#81433D;" width="65.362" height="245.106"/>
<polygon style="fill:#FFC5BF;" points="332.255,302.298 332.255,471.149 299.574,471.149 266.894,386.723 299.574,302.298 "/>
<rect x="179.745" y="302.298" style="fill:#FFD8D4;" width="119.83" height="168.851"/>
<polygon style="fill:#81433D;" points="397.617,236.936 397.617,269.617 364.936,269.617 354.043,253.277 364.936,236.936 "/>
<rect x="114.383" y="236.936" style="fill:#A65149;" width="250.553" height="32.681"/>
<path d="M179.745,394.894c-4.513,0-8.17,3.658-8.17,8.17v68.085c0,4.512,3.657,8.17,8.17,8.17h152.511c4.513,0,8.17-3.658,8.17-8.17
	V302.298c0-4.512-3.657-8.17-8.17-8.17H179.745c-4.513,0-8.17,3.658-8.17,8.17v68.085c0,4.512,3.657,8.17,8.17,8.17
	s8.17-3.658,8.17-8.17v-59.915h136.17v152.511h-136.17v-59.915C187.915,398.552,184.258,394.894,179.745,394.894z"/>
<path d="M397.617,228.766h-55.862c-2.657-9.103-6.689-17.579-11.852-25.206c9.622-7.648,15.497-19.383,15.497-31.986
	c0-3.025-0.342-6.072-1.02-9.056L319.251,51.571c-0.04-0.176-0.094-0.345-0.145-0.515C312.21,21.826,285.924,0,254.619,0
	c-19.866,0-37.704,8.798-49.86,22.688c-0.137,0.138-0.277,0.277-0.406,0.427c-0.109,0.126-0.204,0.259-0.303,0.391
	c-6.639,7.838-11.484,17.23-13.919,27.549c-0.05,0.171-0.105,0.34-0.145,0.516l-25.129,110.95c-0.675,2.988-1.019,6.034-1.019,9.053
	c0,12.604,5.875,24.339,15.497,31.986c-5.164,7.627-9.195,16.102-11.852,25.206h-53.1c-4.513,0-8.17,3.658-8.17,8.17v32.681
	c0,4.512,3.657,8.17,8.17,8.17h24.511V495.66h-2.723c-4.513,0-8.17,3.658-8.17,8.17s3.657,8.17,8.17,8.17h239.66
	c4.513,0,8.17-3.658,8.17-8.17s-3.657-8.17-8.17-8.17h-2.723V277.787h24.511c4.513,0,8.17-3.658,8.17-8.17v-32.681
	C405.787,232.424,402.13,228.766,397.617,228.766z M204.689,66.269c0-9.554,2.702-18.486,7.375-26.083
	c26.604,20.485,58.9,32.378,92.484,34.043v6.563c0,27.53-22.398,49.929-49.929,49.929c-27.531,0-49.93-22.398-49.93-49.929V66.269z
	 M303.819,57.825c-29.387-1.761-57.611-12.212-81.022-29.999c8.646-7.17,19.739-11.486,31.822-11.486
	C279.271,16.34,299.793,34.304,303.819,57.825z M180.794,166.129l13.251-58.504c10.321,23.208,33.581,39.439,60.574,39.439
	s50.252-16.231,60.573-39.439l13.251,58.505c0.407,1.802,0.614,3.633,0.614,5.446c0,7.643-3.6,14.759-9.488,19.344
	c-16.686-17.065-39.904-27.515-64.95-27.515s-48.264,10.45-64.952,27.514c-5.888-4.585-9.488-11.7-9.488-19.344
	C180.178,169.766,180.386,167.933,180.794,166.129z M254.619,179.745c31.465,0,59.419,20.097,69.96,49.021H184.658
	C195.199,199.841,223.154,179.745,254.619,179.745z M356.766,495.66H155.234V277.787h201.532V495.66z M389.447,261.447H122.553
	v-16.34h266.894V261.447z"/>
</svg>