<?xml version="1.0" encoding="iso-8859-1"?>
<!-- Uploaded to: SVG Repo, www.svgrepo.com, Generator: SVG Repo Mixer Tools -->
<svg version="1.1" id="Layer_1" xmlns="http://www.w3.org/2000/svg" xmlns:xlink="http://www.w3.org/1999/xlink" 
	 viewBox="0 0 512 512" xml:space="preserve">
<circle style="fill:#F4E3C3;" cx="256" cy="256" r="256"/>
<path style="fill:#FED8B2;" d="M511.991,255.367l-97.504-97.504l-4.679,7.547l-42.586-42.586l-21.975,14.979l-27.474-27.474
	l-10.343,15.803l9.457,31.006l-29.805,20.318L63.359,301.67l209.748,209.748C406.512,502.613,512,391.635,512,256
	C512,255.788,511.993,255.579,511.991,255.367z"/>
<path style="fill:#74BC28;" d="M269.874,140.171c-8.709,36.688-19.551,195.194-19.551,195.194s61.559-146.463,70.268-183.151
	c8.709-36.688-1.327-44.932-15.332-48.257C291.254,100.631,278.583,103.483,269.874,140.171z"/>
<path style="fill:#79D720;" d="M242.126,140.171c8.709,36.688,19.551,195.194,19.551,195.194s-61.559-146.463-70.268-183.151
	c-8.709-36.688,1.327-44.932,15.332-48.257C220.746,100.631,233.417,103.483,242.126,140.171z"/>
<path style="fill:#90DFAA;" d="M256,99.125c-0.193,0-0.381,0.031-0.574,0.034c-16.222,0.367-29.284,16.153-29.284,47.607
	c0,29.217,25.154,101.905,29.284,113.643c0.369,1.05,0.574,1.622,0.574,1.622s29.858-83.435,29.858-115.266
	C285.858,114.938,272.491,99.125,256,99.125z"/>
<path style="fill:#73C68A;" d="M285.858,146.768c0-31.83-13.367-47.644-29.858-47.644c-0.193,0-0.381,0.031-0.574,0.034v161.252
	c0.369,1.05,0.574,1.622,0.574,1.622S285.858,178.598,285.858,146.768z"/>
<path style="fill:#F9B54C;" d="M243.46,358.245c0-1.903-1.545-3.448-3.448-3.448c-1.903,0-3.448,1.545-3.448,3.448v60.268
	l-14.77-0.986c-1.9-0.179-3.543,1.31-3.668,3.21c-0.128,1.9,1.31,3.543,3.21,3.668l6.785,0.453l-8.232,4.572
	c-1.664,0.924-2.264,3.024-1.338,4.689c0.629,1.133,1.805,1.772,3.017,1.772c0.565,0,1.141-0.14,1.67-0.434l10.511-5.839
	l-2.319,6.601c-0.631,1.796,0.314,3.765,2.11,4.396c0.379,0.133,0.764,0.197,1.143,0.197c1.422,0,2.755-0.89,3.253-2.307
	c0,0,5.329-15.212,5.334-15.234c0.114-0.345,0.191-0.702,0.191-1.076v-63.95H243.46z"/>
<path style="fill:#F4A200;" d="M292.111,429.432l-8.232-4.572l6.785-0.453c1.901-0.126,3.339-1.769,3.21-3.668
	c-0.126-1.903-1.793-3.391-3.668-3.21l-14.77,0.986v-60.268c0-1.903-1.545-3.448-3.448-3.448s-3.448,1.545-3.448,3.448V422.2
	c0,0.372,0.078,0.729,0.19,1.072c0.005,0.022,5.335,15.238,5.335,15.238c0.498,1.419,1.831,2.307,3.253,2.307
	c0.379,0,0.764-0.064,1.143-0.197c1.796-0.631,2.741-2.6,2.11-4.396l-2.319-6.601l10.511,5.839c0.531,0.295,1.105,0.434,1.67,0.434
	c1.212,0,2.388-0.64,3.017-1.772C294.374,432.454,293.774,430.356,292.111,429.432z"/>
<path style="fill:#66B31B;" d="M404.152,266.493c-35.926,11.454-177.33,83.889-177.33,83.889s157.234-22.769,193.16-34.221
	c35.926-11.452,37.814-24.304,33.442-38.017C449.055,264.426,440.079,255.04,404.152,266.493z"/>
<path style="fill:#74BC28;" d="M366.13,172.865c-25.126,28.117-110.116,162.349-110.116,162.349S379.875,235.717,405.001,207.6
	s20.223-40.145,9.488-49.736C403.754,148.271,391.254,144.748,366.13,172.865z"/>
<path style="fill:#37BF6E;" d="M393.609,219.8c-32.187,19.644-152.388,123.539-152.388,123.539s147.354-59.397,179.541-79.041
	s30.975-32.575,23.476-44.863C436.741,207.146,425.796,200.156,393.609,219.8z"/>
<path style="fill:#5E9B1E;" d="M319.19,146.492c-17.222,33.545-65.614,184.875-65.614,184.875s94.765-127.517,111.987-161.063
	s9.445-43.948-3.36-50.522C349.398,113.207,336.412,112.947,319.19,146.492z"/>
<path style="fill:#66B31B;" d="M107.848,266.493c35.926,11.454,177.33,83.889,177.33,83.889s-157.234-22.769-193.16-34.221
	c-35.926-11.452-37.814-24.304-33.444-38.019C62.943,264.426,71.921,255.04,107.848,266.493z"/>
<path style="fill:#79D720;" d="M145.87,172.865c25.126,28.117,110.116,162.349,110.116,162.349S132.125,235.717,106.999,207.6
	s-20.223-40.145-9.488-49.736C108.246,148.271,120.746,144.748,145.87,172.865z"/>
<path style="fill:#4CD888;" d="M118.391,219.8c32.187,19.644,152.388,123.539,152.388,123.539s-147.354-59.397-179.541-79.041
	s-30.975-32.575-23.476-44.863C75.259,207.146,86.204,200.156,118.391,219.8z"/>
<path style="fill:#66B31B;" d="M192.81,146.492c17.222,33.545,65.614,184.875,65.614,184.875S163.659,203.85,146.437,170.305
	s-9.445-43.948,3.36-50.522C162.604,113.205,175.588,112.947,192.81,146.492z"/>
<path style="fill:#31BAFD;" d="M209.267,321.469c0-28.467,46.733-103.09,46.733-103.09s46.733,74.623,46.733,103.09
	s-20.923,42.61-46.733,42.61S209.267,349.937,209.267,321.469z"/>
<path style="fill:#324A5E;" d="M209.267,321.469c0-28.467,46.733-103.09,46.733-103.09s46.733,74.623,46.733,103.09
	s-20.923,42.61-46.733,42.61S209.267,349.937,209.267,321.469z"/>
<path style="fill:#2B3B4E;" d="M256,218.379c0,0-0.203,0.324-0.574,0.924V364.07c0.191,0.002,0.381,0.01,0.574,0.01
	c25.81,0,46.733-14.143,46.733-42.61C302.735,293.002,256,218.379,256,218.379z"/>
<g>
	
		<rect x="225.363" y="184.797" transform="matrix(-0.5446 -0.8387 0.8387 -0.5446 221.94 491.8282)" style="fill:#31BAFD;" width="38.271" height="1.724"/>
	<rect x="255.138" y="167.202" style="fill:#31BAFD;" width="1.724" height="27.055"/>
	
		<rect x="268.667" y="166.513" transform="matrix(-0.8658 -0.5003 0.5003 -0.8658 410.0114 481.24)" style="fill:#31BAFD;" width="1.722" height="38.269"/>
</g>
<circle style="fill:#2B9ED8;" cx="256" cy="215.626" r="24.741"/>
<circle style="fill:#31BAFD;" cx="256" cy="215.626" r="24.741"/>
<path style="fill:#2B9ED8;" d="M256,190.888c-0.193,0-0.381,0.024-0.574,0.029v49.426c0.193,0.003,0.381,0.029,0.574,0.029
	c13.664,0,24.741-11.078,24.741-24.741C280.743,201.966,269.665,190.888,256,190.888z"/>
<g>
	<circle style="fill:#324A5E;" cx="256" cy="163.926" r="5.739"/>
	<path style="fill:#324A5E;" d="M256,158.189c-0.197,0-0.383,0.038-0.574,0.057v11.362c0.191,0.019,0.378,0.059,0.574,0.059
		c3.17,0,5.739-2.57,5.739-5.739C261.741,160.759,259.17,158.189,256,158.189z"/>
</g>
<circle style="fill:#2B3B4E;" cx="277.325" cy="171.718" r="5.739"/>
<circle style="fill:#324A5E;" cx="234.675" cy="171.718" r="5.739"/>
<path style="fill:#FFD15D;" d="M265.776,233.444c0,5.954-9.776,21.563-9.776,21.563s-9.776-15.608-9.776-21.563
	s4.377-8.913,9.776-8.913C261.399,224.532,265.776,227.49,265.776,233.444z"/>
<path style="fill:#F9B54C;" d="M265.776,233.444c0-5.954-4.377-8.913-9.776-8.913c-0.193,0-0.383,0.012-0.574,0.019v29.518
	c0.352,0.579,0.574,0.938,0.574,0.938S265.776,239.399,265.776,233.444z"/>
</svg>