<?xml version="1.0" encoding="iso-8859-1"?>
<!-- Uploaded to: SVG Repo, www.svgrepo.com, Generator: SVG Repo Mixer Tools -->
<svg version="1.1" id="Layer_1" xmlns="http://www.w3.org/2000/svg" xmlns:xlink="http://www.w3.org/1999/xlink" 
	 viewBox="0 0 512 512" xml:space="preserve">
<g>
	<path style="fill:#F16C60;" d="M277.787,46.298v-16.34c0-12.033-9.754-21.787-21.787-21.787c-12.033,0-21.787,9.754-21.787,21.787
		v16.34c0,12.033,9.754,21.787,21.787,21.787C268.033,68.085,277.787,58.331,277.787,46.298z"/>
	<path style="fill:#F16C60;" d="M201.532,46.298v-16.34c0-12.033-9.754-21.787-21.787-21.787s-21.787,9.754-21.787,21.787v16.34
		c0,12.033,9.754,21.787,21.787,21.787S201.532,58.331,201.532,46.298z"/>
	<path style="fill:#F16C60;" d="M354.043,46.298v-16.34c0-12.033-9.754-21.787-21.787-21.787s-21.787,9.754-21.787,21.787v16.34
		c0,12.033,9.754,21.787,21.787,21.787S354.043,58.331,354.043,46.298z"/>
</g>
<polygon style="fill:#A65149;" points="359.489,438.468 359.489,503.83 119.83,503.83 119.83,182.468 359.489,182.468 
	359.489,226.043 305.021,354.043 "/>
<rect x="326.809" y="182.468" style="fill:#81433D;" width="65.362" height="321.362"/>
<polygon style="fill:#FFC5BF;" points="359.489,226.043 359.489,471.149 326.809,471.149 305.021,370.383 326.809,226.043 "/>
<rect x="152.511" y="226.043" style="fill:#FFD8D4;" width="174.298" height="245.106"/>
<polygon style="fill:#FFC5BF;" points="315.915,128 381.277,193.362 413.957,193.362 413.957,128 "/>
<rect x="98.043" y="128" style="fill:#FFD8D4;" width="283.234" height="65.362"/>
<path d="M435.745,119.83h-95.319V75.114c12.558-3.567,21.787-15.13,21.787-28.816v-16.34C362.213,13.438,348.774,0,332.255,0
	s-29.957,13.438-29.957,29.957v16.34c0,13.686,9.229,25.249,21.787,28.816v44.716H264.17V75.114
	c12.558-3.567,21.787-15.13,21.787-28.816v-16.34C285.957,13.438,272.519,0,256,0s-29.957,13.438-29.957,29.957v16.34
	c0,13.686,9.229,25.249,21.787,28.816v44.716h-59.915V75.114c12.558-3.567,21.787-15.13,21.787-28.816v-16.34
	C209.702,13.438,196.264,0,179.745,0s-29.957,13.438-29.957,29.957v16.34c0,13.686,9.229,25.249,21.787,28.816v44.716H76.255
	c-4.512,0-8.17,3.658-8.17,8.17c0,4.512,3.658,8.17,8.17,8.17h13.617v57.191c0,4.512,3.658,8.17,8.17,8.17h13.617V495.66h-2.723
	c-4.512,0-8.17,3.658-8.17,8.17s3.658,8.17,8.17,8.17h294.128c4.512,0,8.17-3.658,8.17-8.17s-3.658-8.17-8.17-8.17h-2.723V201.532
	h13.617c4.512,0,8.17-3.658,8.17-8.17V136.17h13.617c4.512,0,8.17-3.658,8.17-8.17C443.915,123.488,440.257,119.83,435.745,119.83z
	 M318.638,46.298v-16.34c0-7.509,6.108-13.617,13.617-13.617s13.617,6.108,13.617,13.617v16.34c0,7.509-6.108,13.617-13.617,13.617
	S318.638,53.807,318.638,46.298z M242.383,46.298v-16.34c0-7.509,6.108-13.617,13.617-13.617c7.509,0,13.617,6.108,13.617,13.617
	v16.34c0,7.509-6.108,13.617-13.617,13.617C248.491,59.915,242.383,53.807,242.383,46.298z M166.128,46.298v-16.34
	c0-7.509,6.108-13.617,13.617-13.617s13.617,6.108,13.617,13.617v16.34c0,7.509-6.108,13.617-13.617,13.617
	S166.128,53.807,166.128,46.298z M384,495.66H128V201.532h256V495.66z M405.787,185.191H106.213V136.17h299.574V185.191z"/>
<path d="M187.915,160.681c0,4.512,3.658,8.17,8.17,8.17h185.191c4.512,0,8.17-3.658,8.17-8.17s-3.658-8.17-8.17-8.17H196.085
	C191.573,152.511,187.915,156.169,187.915,160.681z"/>
<path d="M163.404,152.511h-32.681c-4.512,0-8.17,3.658-8.17,8.17s3.658,8.17,8.17,8.17h32.681c4.512,0,8.17-3.658,8.17-8.17
	S167.916,152.511,163.404,152.511z"/>
<path d="M307.745,313.191c0-28.531-23.213-51.745-51.745-51.745s-51.745,23.213-51.745,51.745c0,25.751,18.911,47.164,43.574,51.093
	V384h-24.511c-4.512,0-8.17,3.658-8.17,8.17c0,4.512,3.658,8.17,8.17,8.17h24.511v27.234c0,4.512,3.658,8.17,8.17,8.17
	s8.17-3.658,8.17-8.17V400.34h24.511c4.512,0,8.17-3.658,8.17-8.17c0-4.512-3.658-8.17-8.17-8.17H264.17v-19.715
	C288.833,360.355,307.745,338.943,307.745,313.191z M220.596,313.191c0-19.521,15.883-35.404,35.404-35.404
	c19.521,0,35.404,15.883,35.404,35.404c0,19.521-15.883,35.404-35.404,35.404C236.479,348.596,220.596,332.713,220.596,313.191z"/>
<path d="M152.511,479.319h206.979c4.512,0,8.17-3.658,8.17-8.17V226.043c0-4.512-3.658-8.17-8.17-8.17H152.511
	c-4.512,0-8.17,3.658-8.17,8.17v245.106C144.34,475.661,147.999,479.319,152.511,479.319z M160.681,234.213h190.638v228.766H160.681
	V234.213z"/>
</svg>